<?xml version="1.0" encoding="utf-8"?>

<!DOCTYPE svg PUBLIC "-//W3C//DTD SVG 1.1//EN" "http://www.w3.org/Graphics/SVG/1.1/DTD/svg11.dtd">
<svg fill="#00418B" version="1.1" id="Layer_1" xmlns="http://www.w3.org/2000/svg" xmlns:xlink="http://www.w3.org/1999/xlink" x="0px" y="0px"
	 viewBox="0 0 2630 590.531" enable-background="new 0 0 2630 590.531" xml:space="preserve">
<g>
	<path d="M1315,325.599c12.05-20.528,23.427-46.119,30.77-76.948c19.74-3.043,52.204-24.153,39.558-72.935
		c-9.985-38.492,104.504-134.933,145.925-77.499c-28.204-39.111-109.43-95.755-185.427,22.765
		c3.098-15.931-7.672-46.781-30.827-78.596c-23.154,31.815-33.924,62.664-30.827,78.596
		c-75.996-118.52-157.223-61.875-185.427-22.765c41.421-57.434,155.91,39.006,145.925,77.499
		c-12.647,48.782,19.817,69.892,39.558,72.935C1291.573,279.48,1302.95,305.071,1315,325.599z"/>
	<path d="M1315,548.145l130.044-0.017L2595,529.395l-1142.665-18.614c-7.632,0.975-15.306,0.95-22.61-0.121
		c-20.55-0.003-60.837-0.008-114.725-0.015c-53.888,0.007-94.175,0.012-114.725,0.015c-7.303,1.071-14.977,1.096-22.61,0.121
		L35,529.395l1149.956,18.733L1315,548.145z"/>
	<path d="M667.209,396.326c133.744-82.12,407.794-50.265,532.411-1.712c-27.815,0-84.488,9.053-84.488,56.36
		c0,34.571,30.87,55.761,62.534,59.807c7.632,0.975,15.306,0.95,22.61-0.121c24.595-3.606,44.94-19.102,44.94-48.532
		c0-45.225-65.565-39.462-63.996-2.092c1.047,25.009,49.38,25.029,44.531-2.092c0,0,3.728,4.755,0,17.402
		c-6.97,23.621-83.756,30.353-87.94-21.11c-2.263-27.747,35.964-36.705,65.185-36.705c35.253-0.765,75.122,3.573,112.005,7.703
		c36.883-4.13,76.752-8.468,112.005-7.703c29.222,0,67.448,8.957,65.185,36.705c-4.184,51.463-80.97,44.731-87.94,21.11
		c-3.728-12.647,0-17.402,0-17.402c-4.849,27.12,43.485,27.101,44.531,2.092c1.568-37.37-63.996-43.132-63.996,2.092
		c0,29.431,20.345,44.927,44.94,48.532c7.303,1.071,14.977,1.096,22.61,0.121c31.664-4.046,62.534-25.236,62.534-59.807
		c0-47.307-56.674-56.36-84.488-56.36c124.616-48.553,398.667-80.408,532.41,1.712c133.698,82.101,249.233,33.51,305.478,16.831
		c-191.465,27.234-206.185,5.743-273.547-42.696c-59.27-42.563-115.439-148.968-252.255-171.828
		c-143.112-23.867-189.468,76.966-201.544,114.299c11.286-63.767-66.183-122.191-132.842-71.888
		c-94.567,71.413-19.779,138.357-19.779,138.357c-23.51,3.116-47.984,6.622-73.304,9.438c-25.319-2.816-49.793-6.322-73.304-9.438
		c0,0,74.788-66.944-19.779-138.357c-66.658-50.303-144.128,8.121-132.842,71.888c-12.076-37.333-58.432-138.166-201.544-114.299
		c-136.816,22.86-192.985,129.266-252.255,171.828c-67.362,48.439-82.082,69.93-273.547,42.696
		C417.976,429.836,533.511,478.427,667.209,396.326z M1781.977,250.305c44.075,13.693,91.191,30.429,154.998,106.501
		c0,0-110.923-94.33-364.767-33.605C1572.208,323.201,1592.035,209.188,1781.977,250.305z M1443.075,271.472
		c57.692-22.783,80.285,49.009,54.63,66.944c-25.674,17.944-48.639,21.244-48.639,21.244s-25.817,10.612-34.946-4.603
		C1405.01,339.88,1385.308,294.294,1443.075,271.472z M1186.925,271.472c57.767,22.822,38.065,68.408,28.955,83.585
		c-9.129,15.214-34.946,4.603-34.946,4.603s-22.964-3.3-48.639-21.244C1106.64,320.482,1129.233,248.689,1186.925,271.472z
		 M848.023,250.305c189.943-41.118,209.77,72.896,209.77,72.896c-253.844-60.725-364.767,33.605-364.767,33.605
		C756.831,280.734,803.948,263.998,848.023,250.305z"/>
</g>
</svg>
